<?xml version="1.0" encoding="UTF-8" standalone="no"?>
<!-- Created with Inkscape (http://www.inkscape.org/) -->

<svg
   width="93.082397mm"
   height="83.006462mm"
   viewBox="0 0 93.082397 83.006462"
   version="1.1"
   id="svg1"
   xmlns="http://www.w3.org/2000/svg"
   xmlns:svg="http://www.w3.org/2000/svg">
  <defs
     id="defs1" />
  <g
     id="layer1"
     transform="translate(-63.334413,-106.99678)">
    <rect
       style="fill:#0046be;fill-opacity:1;stroke-width:0.264583"
       id="rect1"
       width="93.08239"
       height="83.006454"
       x="63.334412"
       y="106.99677"
       ry="24.949919" />
    <rect
       style="fill:#ffffff;fill-opacity:1;stroke:#000000;stroke-width:1.616;stroke-dasharray:none;stroke-opacity:1"
       id="rect2"
       width="34.135086"
       height="27.897602"
       x="93.287857"
       y="135.99063"
       ry="0"
       rx="0" />
    <path
       style="fill:#ffffff;fill-opacity:1;stroke:#000000;stroke-width:2.765;stroke-dasharray:none;stroke-opacity:1"
       id="path4"
       d="m 92.369046,132.41107 c 1.617358,3.40817 3.580228,6.64004 5.638252,9.79753 2.150342,3.10422 4.062562,6.36043 6.102532,9.53515 1.27983,1.84648 1.34606,2.2121 4.69001,3.29245 0.4989,0.16118 1.00601,-0.32989 1.45094,-0.60724 2.63356,-1.6416 4.9922,-4.27974 7.13198,-6.4813 3.43424,-3.7914 6.46942,-7.97284 9.07717,-12.37547 1.18573,-2.00187 2.50736,-4.63557 3.56938,-6.69075 1.88462,-3.87012 3.94562,-7.64418 6.04777,-11.39857 0,0 -3.15807,-1.81321 -3.15807,-1.81321 v 0 c -2.02192,3.80256 -3.997,7.62722 -5.89895,11.49159 -0.84677,1.60962 -2.63191,5.0524 -3.57451,6.65465 -2.58305,4.39067 -5.58006,8.56942 -9.04187,12.3086 -1.8172,1.80834 -3.07525,3.18913 -5.09968,4.73231 -0.696,0.53055 -1.4124,1.04939 -2.19627,1.43853 -0.40861,0.20285 -1.57141,-0.0753 -1.33226,0.31315 0.51429,0.83543 1.56874,1.23233 2.49046,1.5683 0.35427,0.12913 -0.45071,-0.60464 -0.67606,-0.90695 -2.11344,-3.16968 -4.01819,-6.4743 -6.22054,-9.58672 -2.017134,-3.07365 -3.930471,-6.2278 -5.424797,-9.59287 z" />
  </g>
</svg>
